<?xml version="1.0" encoding="utf-8"?>
<!-- Generator: Adobe Illustrator 15.1.0, SVG Export Plug-In . SVG Version: 6.00 Build 0)  -->
<!DOCTYPE svg PUBLIC "-//W3C//DTD SVG 1.1//EN" "http://www.w3.org/Graphics/SVG/1.1/DTD/svg11.dtd">
<svg version="1.1" id="Layer_1" xmlns="http://www.w3.org/2000/svg" xmlns:xlink="http://www.w3.org/1999/xlink" x="0px" y="0px"
	 width="612px" height="792px" viewBox="0 0 612 792" enable-background="new 0 0 612 792" xml:space="preserve">
<g id="OxOxBR_1_">
	<g>
		<path fill-rule="evenodd" clip-rule="evenodd" d="M315,138c0.492,6.347-5.735,9.519-9,14c-24.847,34.108-41.952,81.57-56,128
			c-16.316,53.927-28.613,114.462-31,180c-64.277-21.271-97.816-89.303-99-177c-0.27-20.01,1.777-45.952,9-60
			c5.433-10.566,22.837-22.042,34-31C202.018,160.692,247.78,140.083,315,138z"/>
		<path fill-rule="evenodd" clip-rule="evenodd" d="M506,225c-50.721,75.762-101.684,154.18-178,206
			c-25.491,17.309-56.424,33.166-97,31c2.147-60.477,13.268-123.968,30-180c16.043-53.725,36.2-108.802,69-141
			c-0.296,0.291,4.302-2.032,5-2C409.027,142.396,467.352,180.842,506,225z"/>
		<path fill-rule="evenodd" clip-rule="evenodd" d="M231,516c-1.474-12.859-0.925-27.742-1-42c79.274-0.894,134.731-52.283,176-97
			c41.594-45.069,78.154-96.175,108-142c26.479,31.777,51.242,83.813,53,147c0.551,19.803,0.072,43.263-6,59
			c-7.803,20.225-36.691,37.542-58,48C434.834,522.455,324.487,532.644,231,516z"/>
		<path fill-rule="evenodd" clip-rule="evenodd" d="M111,246c-8.253,107.354,22.234,200.781,107,225c-0.044,14.378-0.284,28.95,1,42
			c-31.196-6.377-59.265-14.739-86-28c-21.915-10.87-53.903-29.509-62-52c-5.191-14.419-4.661-36.359-4-54
			C69.121,322.353,88.842,279.875,111,246z"/>
		<path fill-rule="evenodd" clip-rule="evenodd" d="M78,461c34.874,33.793,84.642,52.69,142,64c-0.269,12.936,2.342,22.992,3,35
			c-14.837-1.136-31.216-1.552-49-1c-12.831,0.398-27.477,4.271-36,2c-4.606-1.228-14.234-14.012-19-20
			C101.195,518.63,86.734,489.305,78,461z"/>
		<path fill-rule="evenodd" clip-rule="evenodd" d="M552,469c-10.917,45.093-49.625,93.355-89,122
			c-10.638,7.738-32.807,23.911-44,25c-6.16,0.6-16.941-3.096-25-5c-55.99-13.234-99.641-39.394-158-49
			c-2.381-10.619-3.82-22.18-4-35C350.605,546.679,489.825,530.946,552,469z"/>
		<path fill-rule="evenodd" clip-rule="evenodd" d="M225,572c3.971,18.362,8.262,36.404,14,53c-35.956-11.045-68.387-30.945-90-53
			C172.505,569.404,201.583,569.145,225,572z"/>
		<path fill-rule="evenodd" clip-rule="evenodd" d="M238,574c59.313,10.354,100.993,38.339,160,49
			c-35.859,17.939-101.637,18.519-145,7C247.127,612.206,240.764,594.903,238,574z"/>
	</g>
</g>
</svg>
